<svg xmlns="http://www.w3.org/2000/svg" viewBox="0 0 512 512" style="height: 512px; width: 512px;"><path d="M0 0h512v512H0z" fill="#000" fill-opacity="1"></path><g class="" transform="translate(0,0)" style=""><path d="M263.844 40.344C234.1 213.202 145.594 248.03 145.594 369.22c0 60.804 60.106 105.5 118.25 105.5 59.45 0 115.937-41.803 115.937-99.533 0-116.332-85.2-162.312-115.936-334.843zm-58.28 217.094c-27.963 75.53-5.105 154.567 54.25 179.375 15.185 6.348 31.724 7.714 47.905 6.28-116.134 49.787-185.836-79.816-102.158-185.656z" fill="#d50d0d" fill-opacity="1" transform="translate(25.6, 25.6) scale(0.9, 0.9) rotate(0, 256, 256) skewX(0) skewY(0)"></path></g><g class="" transform="translate(153,235)" style=""><g transform="translate(6.4, 6.4) scale(0.8, 0.8) rotate(0, 128, 128)"><circle cx="128" cy="128" r="128" fill="#000000" fill-opacity="1"></circle><circle stroke="#d3882c" stroke-opacity="1" fill="#000000" fill-opacity="1" stroke-width="18" cx="128" cy="128" r="101"></circle><path fill="#d3882c" fill-opacity="1" d="M99.016 83.18c0 27.973 28.984 32.635 28.984 55.946 0 9.325-9.661 23.312-24.153 23.312-14.492 0-24.153-13.987-14.492-37.298-14.491 9.324-19.322 18.649-19.322 27.973 0 23.312 24.153 46.623 57.967 46.623 33.813 0 57.966-13.987 57.966-41.96.216-41.378-49.4-55.2-62.797-74.597-9.66-13.987-4.83-23.311 4.83-32.636-19.321 4.663-28.983 17.717-28.983 32.636z"></path></g></g></svg>